<?xml version="1.0" encoding="UTF-8"?>
<svg version="1.1" xmlns="http://www.w3.org/2000/svg" width="235" height="318">
<path d="M0 0 C21.66679883 19.46742084 34.73206008 46.10812978 37.47436523 75.13085938 C37.62275058 78.17429389 37.66499627 81.20904386 37.66186523 84.25585938 C37.66105957 85.08045654 37.66025391 85.90505371 37.65942383 86.75463867 C37.56951734 95.85546667 37.18690694 105.71002803 33.47436523 114.13085938 C29.94865014 115.61303703 26.42711836 115.02530693 22.69311523 114.70898438 C14.78471771 114.09995688 6.90717626 113.9126861 -1.02563477 113.88085938 C-2.31083008 113.86023438 -3.59602539 113.83960938 -4.92016602 113.81835938 C-31.90398828 113.7098817 -53.82647233 125.77646823 -76.90063477 138.54101562 C-97.57041025 149.94896804 -117.04459861 154.02775134 -140.52563477 153.13085938 C-141.1963501 153.10552124 -141.86706543 153.08018311 -142.55810547 153.05407715 C-147.14708679 152.87655021 -151.73391936 152.6700269 -156.32037354 152.43612671 C-157.86929342 152.357847 -159.41841524 152.2834621 -160.9677124 152.21304321 C-163.15736522 152.11046854 -165.34511189 151.98866921 -167.53344727 151.86132812 C-168.80849121 151.79324951 -170.08353516 151.7251709 -171.3972168 151.6550293 C-174.66026131 151.10830255 -175.62713239 150.75142966 -177.52563477 148.13085938 C-178.47191698 146.68344742 -179.36641656 145.20117888 -180.21313477 143.69335938 C-180.65012695 142.93152344 -181.08711914 142.1696875 -181.53735352 141.38476562 C-182.52563477 139.13085938 -182.52563477 139.13085938 -182.52563477 135.13085938 C-181.74604401 135.1353006 -180.96645325 135.13974182 -180.16323853 135.14431763 C-172.77885654 135.18456517 -165.39452853 135.21493 -158.01006508 135.23448372 C-154.21458848 135.24487475 -150.4192033 135.25894726 -146.6237793 135.28173828 C-142.9538624 135.30363513 -139.28403287 135.3154631 -135.61405563 135.32061386 C-134.22118125 135.32427964 -132.82831109 135.33143705 -131.4354744 135.34231949 C-120.57279274 135.42373547 -110.93475846 134.38329754 -100.77563477 130.50585938 C-100.0951709 130.24861084 -99.41470703 129.9913623 -98.71362305 129.72631836 C-92.78415173 127.39653886 -87.40563306 124.39355445 -81.94750977 121.13476562 C-76.88911359 118.17248567 -71.64728422 115.62390041 -66.38354492 113.05029297 C-64.40419722 112.07076295 -62.43892678 111.06642894 -60.47485352 110.05664062 C-41.56510197 100.35709774 -23.8258722 96.33760915 -2.52563477 97.13085938 C-0.31012448 74.46144162 -1.92458592 52.13824089 -16.59204102 33.50585938 C-18.82598016 30.95722619 -21.13139683 28.52910105 -23.52563477 26.13085938 C-24.55817383 25.08091797 -24.55817383 25.08091797 -25.61157227 24.00976562 C-42.00002669 8.38285648 -62.56746208 3.56498296 -84.60766602 3.85742188 C-102.6928775 4.44016437 -118.24309749 12.04201417 -131.52563477 24.13085938 C-132.17016602 24.69417969 -132.81469727 25.2575 -133.47875977 25.83789062 C-145.22573636 36.71178112 -153.62492907 53.84956588 -154.71264648 69.88842773 C-154.79267127 72.84710823 -154.79875664 75.79625891 -154.77563477 78.75585938 C-154.78336914 79.75359375 -154.79110352 80.75132813 -154.79907227 81.77929688 C-154.78449425 87.28978822 -154.36252641 91.92633304 -152.52563477 97.13085938 C-151.22110352 97.16824219 -149.91657227 97.205625 -148.57250977 97.24414062 C-120.74520477 98.21399308 -120.74520477 98.21399308 -112.52563477 106.13085938 C-111.71313477 108.75585938 -111.71313477 108.75585938 -112.52563477 111.13085938 C-116.98108025 114.8035395 -121.17190497 114.50927456 -126.65454102 114.38867188 C-127.54943741 114.38178345 -128.4443338 114.37489502 -129.36634827 114.36779785 C-132.27390412 114.34357332 -135.18081312 114.29958702 -138.08813477 114.25585938 C-142.07636859 114.21629923 -146.06463458 114.18797122 -150.05297852 114.16210938 C-151.0382251 114.15466705 -152.02347168 114.14722473 -153.03857422 114.13955688 C-162.58614356 114.08579268 -172.09253931 114.41449827 -181.62548828 114.95166016 C-182.65730225 115.00306152 -183.68911621 115.05446289 -184.75219727 115.10742188 C-185.63472168 115.15979004 -186.51724609 115.2121582 -187.42651367 115.26611328 C-189.52563477 115.13085938 -189.52563477 115.13085938 -191.52563477 113.13085938 C-193.9492286 104.23673627 -193.86062649 94.96349293 -193.83813477 85.81835938 C-193.85424805 84.51962891 -193.87036133 83.22089844 -193.88696289 81.8828125 C-193.90037885 54.90332019 -183.65058387 30.6406393 -166.52563477 10.13085938 C-165.63424805 9.01130859 -165.63424805 9.01130859 -164.72485352 7.86914062 C-160.00915731 2.14052638 -154.3847487 -2.35393534 -148.52563477 -6.86914062 C-147.77926758 -7.46597656 -147.03290039 -8.0628125 -146.26391602 -8.67773438 C-134.51204821 -17.55829068 -119.87739839 -23.77667727 -105.52563477 -26.86914062 C-104.50469727 -27.09214844 -103.48375977 -27.31515625 -102.43188477 -27.54492188 C-65.53961319 -34.12643149 -28.18717483 -24.66433893 0 0 Z " fill="#29424A" transform="translate(197.525634765625,32.869140625)"/>
<path d="M0 0 C4.03028226 2.7616195 4.03028226 2.7616195 5.62109375 4.5390625 C5.62109375 5.8590625 5.62109375 7.1790625 5.62109375 8.5390625 C3.50390625 10.171875 3.50390625 10.171875 0.74609375 11.6640625 C-3.07918114 13.74746902 -3.07918114 13.74746902 -6.37890625 16.5390625 C-8.96221564 16.2671352 -10.91355826 15.80671363 -13.171875 14.5078125 C-15.9967025 13.26788822 -18.23954468 13.27354239 -21.31640625 13.2890625 C-22.33605469 13.28390625 -23.35570312 13.27875 -24.40625 13.2734375 C-28.19143877 13.61166725 -31.07336758 14.35550598 -33.92578125 16.94140625 C-37.88852875 21.99776913 -38.78562376 25.6107663 -38.73046875 31.8984375 C-38.02962836 37.16252755 -35.10035016 40.9695107 -31.25390625 44.4765625 C-27.45860103 46.62723546 -24.16408663 46.73115466 -19.87890625 46.7890625 C-18.161875 46.82773437 -18.161875 46.82773437 -16.41015625 46.8671875 C-13.42729935 46.78653609 -13.42729935 46.78653609 -11.53515625 45.2734375 C-10.26369287 43.36624243 -9.76658297 41.78758748 -9.37890625 39.5390625 C-10.66087891 39.55646484 -10.66087891 39.55646484 -11.96875 39.57421875 C-13.07347656 39.58324219 -14.17820313 39.59226562 -15.31640625 39.6015625 C-16.41855469 39.61316406 -17.52070312 39.62476563 -18.65625 39.63671875 C-21.37890625 39.5390625 -21.37890625 39.5390625 -22.37890625 38.5390625 C-22.47783565 36.37425453 -22.50861725 34.20612465 -22.50390625 32.0390625 C-22.50648437 30.853125 -22.5090625 29.6671875 -22.51171875 28.4453125 C-22.37890625 25.5390625 -22.37890625 25.5390625 -21.37890625 24.5390625 C-19.31835315 24.43912718 -17.25438035 24.40825344 -15.19140625 24.40625 C-13.93585937 24.40496094 -12.6803125 24.40367187 -11.38671875 24.40234375 C-10.72961914 24.40443848 -10.07251953 24.4065332 -9.39550781 24.40869141 C-7.3872929 24.41404016 -5.37930166 24.40874559 -3.37109375 24.40234375 C-2.11554687 24.40363281 -0.86 24.40492188 0.43359375 24.40625 C1.59503906 24.40737793 2.75648437 24.40850586 3.953125 24.40966797 C6.62109375 24.5390625 6.62109375 24.5390625 7.62109375 25.5390625 C8.01567523 29.92535028 8.03954229 34.32504924 8.12109375 38.7265625 C8.17523438 39.95955078 8.229375 41.19253906 8.28515625 42.46289062 C8.41904891 51.32371541 8.41904891 51.32371541 6.24047852 54.6418457 C2.8188797 57.70228362 -1.18379025 59.67431983 -5.44140625 61.3515625 C-6.42238281 61.74988281 -7.40335938 62.14820313 -8.4140625 62.55859375 C-19.11328709 66.096809 -30.26601932 65.54157057 -40.37890625 60.5390625 C-48.22487499 55.17364376 -53.05334662 48.69695383 -55.98046875 39.6875 C-57.98217382 28.89399228 -56.60173056 18.44217685 -50.87109375 9.07421875 C-39.03295287 -7.47164793 -16.90507723 -10.38177157 0 0 Z " fill="#2A434D" transform="translate(60.37890625,252.4609375)"/>
<path d="M0 0 C0.70253906 0.00386719 1.40507812 0.00773438 2.12890625 0.01171875 C2.83144531 0.00785156 3.53398437 0.00398437 4.2578125 0 C9.50229247 0.01010497 9.50229247 0.01010497 10.62890625 1.13671875 C10.78676933 2.98846581 10.87997981 4.84580985 10.9453125 6.703125 C10.98720703 7.82783203 11.02910156 8.95253906 11.07226562 10.11132812 C11.11158203 11.29533203 11.15089844 12.47933594 11.19140625 13.69921875 C11.23458984 14.88708984 11.27777344 16.07496094 11.32226562 17.29882812 C11.42874078 20.24464072 11.52936306 23.19066377 11.62890625 26.13671875 C19.54890625 26.13671875 27.46890625 26.13671875 35.62890625 26.13671875 C35.91776988 18.70269585 35.91776988 18.70269585 36.19702148 11.26831055 C36.23512939 10.34187744 36.2732373 9.41544434 36.3125 8.4609375 C36.34915771 7.51307373 36.38581543 6.56520996 36.42358398 5.58862305 C36.62890625 3.13671875 36.62890625 3.13671875 37.62890625 0.13671875 C40.0873123 0.1098019 42.54542507 0.08992073 45.00390625 0.07421875 C45.70257813 0.06583984 46.40125 0.05746094 47.12109375 0.04882812 C52.40234375 0.0234375 52.40234375 0.0234375 54.62890625 1.13671875 C54.69833251 9.70747723 54.75167966 18.27811876 54.78434277 26.84908867 C54.80001726 30.82869249 54.82128763 34.80810434 54.85522461 38.78759766 C54.88775512 42.62606831 54.90574582 46.46435399 54.91353798 50.30295181 C54.91909291 51.76944009 54.92994004 53.23591793 54.94609642 54.70232773 C54.96778786 56.75213466 54.9708768 58.8011715 54.96948242 60.85107422 C54.97614426 62.01911591 54.98280609 63.18715759 54.9896698 64.39059448 C54.81109184 65.74992599 54.81109184 65.74992599 54.62890625 67.13671875 C51.16658131 69.44493538 49.71092309 69.40672864 45.62890625 69.38671875 C44.57703125 69.391875 43.52515625 69.39703125 42.44140625 69.40234375 C39.62890625 69.13671875 39.62890625 69.13671875 36.62890625 67.13671875 C36.28833008 64.70654297 36.28833008 64.70654297 36.3359375 61.69140625 C36.34717651 60.23710205 36.34717651 60.23710205 36.35864258 58.75341797 C36.38595459 57.51865723 36.4132666 56.28389648 36.44140625 55.01171875 C36.50328125 51.09296875 36.56515625 47.17421875 36.62890625 43.13671875 C28.37890625 43.13671875 20.12890625 43.13671875 11.62890625 43.13671875 C11.62890625 51.05671875 11.62890625 58.97671875 11.62890625 67.13671875 C6.83860443 69.05283948 5.24586247 69.32170319 0.37890625 68.82421875 C-0.678125 68.72496094 -1.73515625 68.62570312 -2.82421875 68.5234375 C-5.37109375 68.13671875 -5.37109375 68.13671875 -6.37109375 67.13671875 C-6.47049001 65.08659029 -6.49908928 63.03300483 -6.50048828 60.98046875 C-6.50364044 59.66240234 -6.5067926 58.34433594 -6.51004028 56.98632812 C-6.5082505 55.536458 -6.50619955 54.08658817 -6.50390625 52.63671875 C-6.50457932 51.16080713 -6.50554938 49.68489562 -6.50680542 48.20898438 C-6.50828223 45.11196846 -6.50612839 42.01498133 -6.50146484 38.91796875 C-6.49576755 34.93963326 -6.49904665 30.96136523 -6.50503731 26.98303223 C-6.50864338 23.93423958 -6.50750412 20.88546304 -6.50490952 17.83666992 C-6.50424037 16.36938469 -6.50506822 14.90209801 -6.50738907 13.43481445 C-6.50991632 11.38753282 -6.50538435 9.34024609 -6.50048828 7.29296875 C-6.49969269 6.12572266 -6.49889709 4.95847656 -6.49807739 3.75585938 C-6.27130715 -0.92146082 -4.17155775 0.00803768 0 0 Z " fill="#1F383F" transform="translate(171.37109375,247.86328125)"/>
<path d="M0 0 C1 3 1 3 -0.08764648 6.07958984 C-4.94017835 15.29689743 -4.94017835 15.29689743 -10.51611328 17.20019531 C-14.74268453 17.62895522 -18.82224048 17.71317085 -23.0625 17.625 C-25.90797423 17.63600513 -28.75256143 17.68042207 -31.59765625 17.7265625 C-32.29632813 17.73253448 -32.995 17.73850647 -33.71484375 17.74465942 C-54.89915955 18.11738509 -72.81426491 27.74323921 -91.07128906 37.44775391 C-111.35934165 48.20062473 -131.72879132 58.0253173 -155.28515625 53.34765625 C-158.00420781 52.4146091 -160.44879665 51.32525084 -163 50 C-164.17046875 49.39800781 -165.3409375 48.79601562 -166.546875 48.17578125 C-169.73008593 46.50676926 -172.87190794 44.77043048 -176 43 C-175.67 42.01 -175.34 41.02 -175 40 C-174.19481934 39.98541748 -173.38963867 39.97083496 -172.56005859 39.95581055 C-169.49932107 39.89382481 -166.43916891 39.81952015 -163.37890625 39.73754883 C-161.43249854 39.68893606 -159.48576809 39.65383243 -157.5390625 39.61914062 C-134.86845448 38.9829756 -116.15266712 30.62838489 -96.5390625 20.0625 C-64.43967678 2.85625532 -35.99050671 -0.23716372 0 0 Z " fill="#2E454D" transform="translate(223,168)"/>
<path d="M0 0 C1.8871875 -0.00386719 1.8871875 -0.00386719 3.8125 -0.0078125 C7 0.125 7 0.125 9 1.125 C10.08895395 3.99939622 11.08060941 6.86205186 12.03515625 9.78125 C14.62236444 17.42976384 17.46572942 24.91163535 20.62109375 32.34375 C21.01463043 33.27155273 21.40816711 34.19935547 21.81362915 35.15527344 C23.43288975 38.95686891 25.06321101 42.75367095 26.6940918 46.55029297 C27.90477407 49.37482395 29.10696901 52.20285665 30.30859375 55.03125 C30.6803624 55.88843628 31.05213104 56.74562256 31.43516541 57.62878418 C31.7729451 58.42482056 32.11072479 59.22085693 32.45874023 60.04101562 C32.90672218 61.08304138 32.90672218 61.08304138 33.36375427 62.14611816 C34 64.125 34 64.125 34 68.125 C31.3941111 68.25994246 28.79517889 68.35902299 26.1875 68.4375 C25.44951172 68.47939453 24.71152344 68.52128906 23.95117188 68.56445312 C21.79296875 68.61328125 21.79296875 68.61328125 18 68.125 C16.11328125 65.85546875 16.11328125 65.85546875 15 63.125 C14.34 61.805 13.68 60.485 13 59.125 C4.42 59.125 -4.16 59.125 -13 59.125 C-14.65 62.095 -16.3 65.065 -18 68.125 C-23.28 68.125 -28.56 68.125 -34 68.125 C-32.87544123 60.25308858 -32.87544123 60.25308858 -31.03125 55.96484375 C-30.6293042 55.01722168 -30.2273584 54.06959961 -29.81323242 53.09326172 C-29.37986572 52.09311035 -28.94649902 51.09295898 -28.5 50.0625 C-27.58923559 47.91822696 -26.67909318 45.77368964 -25.76953125 43.62890625 C-25.30756348 42.54625488 -24.8455957 41.46360352 -24.36962891 40.34814453 C-22.27274647 35.41355596 -20.22274337 30.46028177 -18.1875 25.5 C-17.8155249 24.59604492 -17.4435498 23.69208984 -17.06030273 22.76074219 C-14.47007094 16.41441172 -12.1215776 10.02010063 -9.97265625 3.51171875 C-8.10153718 -1.07966179 -4.45147868 -0.00912188 0 0 Z M-1 24.125 C-3.87884807 30.71778183 -6.50865808 37.07501999 -8 44.125 C-3.05 44.125 1.9 44.125 7 44.125 C5.04068712 37.26740492 2.75665244 30.70178502 0 24.125 C-0.33 24.125 -0.66 24.125 -1 24.125 Z " fill="#2D474F" transform="translate(116,247.875)"/>
<path d="M0 0 C0.89460938 -0.00128906 1.78921875 -0.00257812 2.7109375 -0.00390625 C3.65195313 -0.00003906 4.59296875 0.00382812 5.5625 0.0078125 C6.97402344 0.00201172 6.97402344 0.00201172 8.4140625 -0.00390625 C9.75597656 -0.00197266 9.75597656 -0.00197266 11.125 0 C11.95128906 0.00112793 12.77757812 0.00225586 13.62890625 0.00341797 C15.5625 0.1328125 15.5625 0.1328125 16.5625 1.1328125 C16.71832303 2.47296471 16.81294142 3.82040153 16.87890625 5.16796875 C16.93606812 6.26057007 16.93606812 6.26057007 16.99438477 7.37524414 C17.03748779 8.3058667 17.08059082 9.23648926 17.125 10.1953125 C17.269375 13.1446875 17.41375 16.0940625 17.5625 19.1328125 C24.1625 19.4628125 30.7625 19.7928125 37.5625 20.1328125 C37.58933201 23.61202985 37.6092567 27.09104289 37.625 30.5703125 C37.63337891 31.56353516 37.64175781 32.55675781 37.65039062 33.58007812 C37.65361328 34.52431641 37.65683594 35.46855469 37.66015625 36.44140625 C37.66539307 37.31595459 37.67062988 38.19050293 37.67602539 39.09155273 C37.5625 41.1328125 37.5625 41.1328125 36.5625 42.1328125 C35.14679877 42.21932861 33.726905 42.23986154 32.30859375 42.23046875 C31.45458984 42.22724609 30.60058594 42.22402344 29.72070312 42.22070312 C28.82287109 42.21232422 27.92503906 42.20394531 27 42.1953125 C26.09830078 42.19080078 25.19660156 42.18628906 24.26757812 42.18164062 C22.03248686 42.16981475 19.79752563 42.1533347 17.5625 42.1328125 C17.57410156 43.40898438 17.58570313 44.68515625 17.59765625 46 C17.60703417 47.66926937 17.61613437 49.33854033 17.625 51.0078125 C17.63337891 51.84957031 17.64175781 52.69132812 17.65039062 53.55859375 C17.65361328 54.36425781 17.65683594 55.16992188 17.66015625 56 C17.66539307 56.74362793 17.67062988 57.48725586 17.67602539 58.25341797 C17.5625 60.1328125 17.5625 60.1328125 16.5625 62.1328125 C12.91668313 62.16168762 9.27089537 62.17956835 5.625 62.1953125 C4.58408203 62.20369141 3.54316406 62.21207031 2.47070312 62.22070312 C0.98666992 62.22553711 0.98666992 62.22553711 -0.52734375 62.23046875 C-1.90200806 62.23832397 -1.90200806 62.23832397 -3.30444336 62.24633789 C-5.4375 62.1328125 -5.4375 62.1328125 -6.4375 61.1328125 C-6.52401611 59.71711127 -6.54454904 58.2972175 -6.53515625 56.87890625 C-6.53193359 56.02490234 -6.52871094 55.17089844 -6.52539062 54.29101562 C-6.51701172 53.39318359 -6.50863281 52.49535156 -6.5 51.5703125 C-6.49548828 50.66861328 -6.49097656 49.76691406 -6.48632812 48.83789062 C-6.47450225 46.60279936 -6.4580222 44.36783813 -6.4375 42.1328125 C-7.29299438 42.14066772 -7.29299438 42.14066772 -8.16577148 42.14868164 C-10.73550323 42.16939471 -13.30521747 42.1824544 -15.875 42.1953125 C-16.77283203 42.20369141 -17.67066406 42.21207031 -18.59570312 42.22070312 C-19.87670898 42.22553711 -19.87670898 42.22553711 -21.18359375 42.23046875 C-21.97435303 42.23570557 -22.7651123 42.24094238 -23.57983398 42.24633789 C-25.4375 42.1328125 -25.4375 42.1328125 -26.4375 41.1328125 C-26.52419432 39.6440939 -26.54453494 38.1513675 -26.53515625 36.66015625 C-26.53193359 35.76103516 -26.52871094 34.86191406 -26.52539062 33.93554688 C-26.51701172 32.99001953 -26.50863281 32.04449219 -26.5 31.0703125 C-26.49548828 30.12091797 -26.49097656 29.17152344 -26.48632812 28.19335938 C-26.4745011 25.83978185 -26.45802025 23.48632773 -26.4375 21.1328125 C-22.36801131 18.84471477 -18.75641048 18.90287286 -14.1875 19.0078125 C-13.44242188 19.01683594 -12.69734375 19.02585937 -11.9296875 19.03515625 C-10.09881941 19.05862892 -8.26811762 19.09449725 -6.4375 19.1328125 C-6.37691406 17.84503906 -6.31632812 16.55726562 -6.25390625 15.23046875 C-6.16951753 13.55207091 -6.0848687 11.87368614 -6 10.1953125 C-5.96068359 9.34517578 -5.92136719 8.49503906 -5.88085938 7.61914062 C-5.83896484 6.81025391 -5.79707031 6.00136719 -5.75390625 5.16796875 C-5.71724854 4.419104 -5.68059082 3.67023926 -5.64282227 2.89868164 C-5.22908195 -0.65968182 -3.10221524 0.00423469 0 0 Z " fill="#354F56" transform="translate(113.4375,63.8671875)"/>
<path d="M0 0 C0.70253906 0.00386719 1.40507812 0.00773438 2.12890625 0.01171875 C2.83144531 0.00785156 3.53398437 0.00398437 4.2578125 0 C9.50229247 0.01010497 9.50229247 0.01010497 10.62890625 1.13671875 C10.78676933 2.98846581 10.87997981 4.84580985 10.9453125 6.703125 C10.98720703 7.82783203 11.02910156 8.95253906 11.07226562 10.11132812 C11.11158203 11.29533203 11.15089844 12.47933594 11.19140625 13.69921875 C11.23458984 14.88708984 11.27777344 16.07496094 11.32226562 17.29882812 C11.42874078 20.24464072 11.52936306 23.19066377 11.62890625 26.13671875 C19.54890625 26.13671875 27.46890625 26.13671875 35.62890625 26.13671875 C35.91776988 18.70269585 35.91776988 18.70269585 36.19702148 11.26831055 C36.23512939 10.34187744 36.2732373 9.41544434 36.3125 8.4609375 C36.34915771 7.51307373 36.38581543 6.56520996 36.42358398 5.58862305 C36.62890625 3.13671875 36.62890625 3.13671875 37.62890625 0.13671875 C40.0873123 0.1098019 42.54542507 0.08992073 45.00390625 0.07421875 C45.70257813 0.06583984 46.40125 0.05746094 47.12109375 0.04882812 C52.40234375 0.0234375 52.40234375 0.0234375 54.62890625 1.13671875 C54.69833251 9.70747723 54.75167966 18.27811876 54.78434277 26.84908867 C54.80001726 30.82869249 54.82128763 34.80810434 54.85522461 38.78759766 C54.88775512 42.62606831 54.90574582 46.46435399 54.91353798 50.30295181 C54.91909291 51.76944009 54.92994004 53.23591793 54.94609642 54.70232773 C54.96778786 56.75213466 54.9708768 58.8011715 54.96948242 60.85107422 C54.97614426 62.01911591 54.98280609 63.18715759 54.9896698 64.39059448 C54.81109184 65.74992599 54.81109184 65.74992599 54.62890625 67.13671875 C51.16658131 69.44493538 49.71092309 69.40672864 45.62890625 69.38671875 C44.57703125 69.391875 43.52515625 69.39703125 42.44140625 69.40234375 C39.62890625 69.13671875 39.62890625 69.13671875 36.62890625 67.13671875 C36.28833008 64.70654297 36.28833008 64.70654297 36.3359375 61.69140625 C36.34717651 60.23710205 36.34717651 60.23710205 36.35864258 58.75341797 C36.38595459 57.51865723 36.4132666 56.28389648 36.44140625 55.01171875 C36.50328125 51.09296875 36.56515625 47.17421875 36.62890625 43.13671875 C28.37890625 43.13671875 20.12890625 43.13671875 11.62890625 43.13671875 C11.62890625 51.05671875 11.62890625 58.97671875 11.62890625 67.13671875 C11.29890625 67.13671875 10.96890625 67.13671875 10.62890625 67.13671875 C10.62890625 58.88671875 10.62890625 50.63671875 10.62890625 42.13671875 C15.10811222 42.10989716 19.58715976 42.08996698 24.06640625 42.07421875 C25.34580078 42.06583984 26.62519531 42.05746094 27.94335938 42.04882812 C29.15830078 42.04560547 30.37324219 42.04238281 31.625 42.0390625 C32.75091553 42.03382568 33.87683105 42.02858887 35.03686523 42.02319336 C37.62890625 42.13671875 37.62890625 42.13671875 38.62890625 43.13671875 C38.71604456 44.84444233 38.73590632 46.55570524 38.7265625 48.265625 C38.72333984 49.30009766 38.72011719 50.33457031 38.71679688 51.40039062 C38.70422852 53.03331055 38.70422852 53.03331055 38.69140625 54.69921875 C38.68689453 55.79169922 38.68238281 56.88417969 38.67773438 58.00976562 C38.66590465 60.71877307 38.64796856 63.42775255 38.62890625 66.13671875 C43.57890625 66.13671875 48.52890625 66.13671875 53.62890625 66.13671875 C53.62890625 45.01671875 53.62890625 23.89671875 53.62890625 2.13671875 C48.67890625 2.13671875 43.72890625 2.13671875 38.62890625 2.13671875 C38.29890625 10.71671875 37.96890625 19.29671875 37.62890625 28.13671875 C28.38890625 28.13671875 19.14890625 28.13671875 9.62890625 28.13671875 C9.62890625 19.55671875 9.62890625 10.97671875 9.62890625 2.13671875 C4.67890625 2.13671875 -0.27109375 2.13671875 -5.37109375 2.13671875 C-5.37109375 23.58671875 -5.37109375 45.03671875 -5.37109375 67.13671875 C-5.70109375 67.13671875 -6.03109375 67.13671875 -6.37109375 67.13671875 C-6.3942201 58.54866155 -6.41201033 49.96061726 -6.42290592 41.37253666 C-6.42813411 37.38514675 -6.43523059 33.39777808 -6.4465332 29.41040039 C-6.45736436 25.56546761 -6.46337107 21.7205553 -6.46597099 17.87560844 C-6.46782483 16.40552892 -6.47144466 14.93545057 -6.47682381 13.46537971 C-6.4840373 11.41317408 -6.48508456 9.36105408 -6.48461914 7.30883789 C-6.48683975 6.13857559 -6.48906036 4.96831329 -6.49134827 3.7625885 C-6.27678269 -0.92265149 -4.17654901 0.0080473 0 0 Z " fill="#A2AFB3" transform="translate(171.37109375,247.86328125)"/>
<path d="M0 0 C0 0.99 0 1.98 0 3 C-8.4735532 10.65758141 -20.07930188 15.25182269 -31.3828125 15.16796875 C-35.11658113 14.92833882 -38.41774106 14.06141006 -42 13 C-41.52022059 8.44590336 -41.52022059 8.44590336 -39.27734375 6.5234375 C-26.78065474 0.38983722 -13.69026894 -0.53108802 0 0 Z " fill="#51646A" transform="translate(191,208)"/>
<path d="M0 0 C6.27 0 12.54 0 19 0 C19 0.33 19 0.66 19 1 C13.39 1 7.78 1 2 1 C2 6.28 2 11.56 2 17 C7.94 17 13.88 17 20 17 C21.17426264 19.34852528 21.11508173 20.73774065 21.09765625 23.3515625 C21.09443359 24.20234375 21.09121094 25.053125 21.08789062 25.9296875 C21.07951172 26.81914063 21.07113281 27.70859375 21.0625 28.625 C21.05798828 29.5221875 21.05347656 30.419375 21.04882812 31.34375 C21.03702611 33.56252831 21.01909039 35.78127243 21 38 C26.61 38 32.22 38 38 38 C37.938125 34.596875 37.938125 34.596875 37.875 31.125 C37.8046875 27.2578125 37.8046875 27.2578125 38 24 C38.66 23.34 39.32 22.68 40 22 C40 27.94 40 33.88 40 40 C33.4 40 26.8 40 20 40 C20 33.4 20 26.8 20 20 C13.4 20 6.8 20 0 20 C0 13.4 0 6.8 0 0 Z " fill="#172A31" transform="translate(89,85)"/>
<path d="M0 0 C0 0.66 0 1.32 0 2 C-2.72490877 3.26000271 -5.45443692 4.50789881 -8.1875 5.75 C-9.31188477 6.27207031 -9.31188477 6.27207031 -10.45898438 6.8046875 C-22.54761659 12.26733302 -33.48239938 14.59307596 -46.70703125 14.390625 C-48.16817948 14.38314146 -49.62933792 14.37745856 -51.09049988 14.37347412 C-54.88987165 14.35838343 -58.68860724 14.31925099 -62.48773193 14.2746582 C-66.38300985 14.23334202 -70.27839308 14.21538648 -74.17382812 14.1953125 C-81.78283848 14.15273531 -89.39132927 14.08469282 -97 14 C-97.33 14.99 -97.66 15.98 -98 17 C-98.33 15.35 -98.66 13.7 -99 12 C-97.83061386 12.00666183 -97.83061386 12.00666183 -96.63760376 12.01345825 C-89.25322178 12.05370579 -81.86889377 12.08407062 -74.48443031 12.10362434 C-70.68895371 12.11401537 -66.89356854 12.12808788 -63.09814453 12.15087891 C-59.42822763 12.17277575 -55.7583981 12.18460373 -52.08842087 12.18975449 C-50.69554649 12.19342027 -49.30267632 12.20057767 -47.90983963 12.21146011 C-36.79436385 12.29477079 -27.17052795 11.14453323 -16.8125 7.125 C-16.15314453 6.88136719 -15.49378906 6.63773438 -14.81445312 6.38671875 C-11.41446526 5.09371844 -8.27618404 3.64761127 -5.13671875 1.8046875 C-2 0 -2 0 0 0 Z " fill="#B5BEC1" transform="translate(114,156)"/>
<path d="M0 0 C8.91 0 17.82 0 27 0 C27 8.91 27 17.82 27 27 C26.67 27 26.34 27 26 27 C26 18.75 26 10.5 26 2 C18.41 2 10.82 2 3 2 C3 4.97 3 7.94 3 11 C3.66 10.67 4.32 10.34 5 10 C7.6723621 9.86584528 10.32250488 9.95681459 13 10 C12.67 10.66 12.34 11.32 12 12 C8.04 12 4.08 12 0 12 C0 8.04 0 4.08 0 0 Z " fill="#1A2D34" transform="translate(39,278)"/>
<path d="M0 0 C10.89 0 21.78 0 33 0 C33 0.33 33 0.66 33 1 C31.43883181 1.33951619 29.87598662 1.67132544 28.3125 2 C27.00732422 2.2784375 27.00732422 2.2784375 25.67578125 2.5625 C23.06287036 2.98972047 20.64186962 3.07616201 18 3 C17.67 3.99 17.34 4.98 17 6 C11.86974712 7.28256322 7.87860062 6.8523605 3 5 C1 3.5 1 3.5 0 2 C0 1.34 0 0.68 0 0 Z " fill="#1A373F" transform="translate(49,209)"/>
<path d="M0 0 C0 0.66 0 1.32 0 2 C2.64 2 5.28 2 8 2 C8 2.33 8 2.66 8 3 C7.38834488 3.01030746 6.77668976 3.02061493 6.14649963 3.03123474 C-0.19582316 3.13906745 -6.53799714 3.25368342 -12.88012695 3.37231445 C-15.24988708 3.4157381 -17.61968 3.45740749 -19.98950195 3.49731445 C-23.38763333 3.55483768 -26.78559843 3.61858303 -30.18359375 3.68359375 C-31.25024765 3.70030624 -32.31690155 3.71701874 -33.4158783 3.73423767 C-34.39681961 3.75418289 -35.37776093 3.77412811 -36.38842773 3.79467773 C-37.25668686 3.81022202 -38.12494598 3.8257663 -39.01951599 3.84178162 C-41.00080779 3.78462425 -41.00080779 3.78462425 -42 5 C-44.01594582 5.23427778 -46.038474 5.41336124 -48.0625 5.5625 C-49.16722656 5.64628906 -50.27195313 5.73007813 -51.41015625 5.81640625 C-52.26480469 5.87699219 -53.11945313 5.93757812 -54 6 C-52 4 -52 4 -49 3 C-49.33 2.34 -49.66 1.68 -50 1 C-43.20068967 0.85729375 -36.40137264 0.71491012 -29.60205078 0.57275391 C-27.28759609 0.52432619 -24.97314296 0.47582382 -22.65869141 0.42724609 C-19.33756915 0.35755231 -16.01644144 0.28812446 -12.6953125 0.21875 C-11.65569366 0.19687622 -10.61607483 0.17500244 -9.54495239 0.15246582 C-8.10368484 0.12243469 -8.10368484 0.12243469 -6.63330078 0.09179688 C-5.36089035 0.06514954 -5.36089035 0.06514954 -4.06277466 0.03796387 C-2.70868662 0.01304286 -1.35431734 0 0 0 Z " fill="#253A42" transform="translate(217,142)"/>
<path d="M0 0 C1 3 1 3 0.00390625 5.26171875 C-0.70958984 6.46248047 -0.70958984 6.46248047 -1.4375 7.6875 C-1.91058594 8.49574219 -2.38367188 9.30398437 -2.87109375 10.13671875 C-3.24363281 10.75160156 -3.61617187 11.36648437 -4 12 C-5 9 -5 9 -4.22265625 7.17578125 C-3.1484375 5.45052083 -2.07421875 3.72526042 -1 2 C-6.52815772 2.069918 -12.05563202 2.15835376 -17.58325195 2.26245117 C-19.45556923 2.29528199 -21.32797558 2.32343718 -23.20043945 2.34643555 C-33.55810896 2.47698274 -43.54474855 2.88157738 -53.70103455 5.05574036 C-57.10192507 5.77137654 -59.69444599 6.26248331 -63 5 C-41.99696166 -0.22645051 -21.50492461 -0.14170926 0 0 Z " fill="#A0ACB0" transform="translate(223,168)"/>
<path d="M0 0 C1.65310181 -0.0009668 1.65310181 -0.0009668 3.33959961 -0.00195312 C11.34874492 0.04986695 19.00547762 0.61077995 26.875 2.1875 C26.875 2.5175 26.875 2.8475 26.875 3.1875 C18.46 3.6825 18.46 3.6825 9.875 4.1875 C9.875 3.8575 9.875 3.5275 9.875 3.1875 C-11.46610732 2.34376194 -11.46610732 2.34376194 -32.2734375 6.25 C-35.08992786 7.17596943 -37.18711326 7.36031687 -40.125 7.1875 C-36.55213289 4.80558859 -33.05782963 4.05676844 -28.9375 3.125 C-28.20724609 2.95162109 -27.47699219 2.77824219 -26.72460938 2.59960938 C-17.76523946 0.52839985 -9.17550467 -0.00553116 0 0 Z " fill="#869497" transform="translate(118.125,3.8125)"/>
<path d="M0 0 C6.6 0 13.2 0 20 0 C20 5.94 20 11.88 20 18 C19.34 18 18.68 18 18 18 C18 12.72 18 7.44 18 2 C16.68 2.33 15.36 2.66 14 3 C10.32809948 3.12820882 6.67561979 3.04375738 3 3 C2.67 7.95 2.34 12.9 2 18 C1.34 18 0.68 18 0 18 C0 12.06 0 6.12 0 0 Z " fill="#0F2128" transform="translate(109,66)"/>
<path d="M0 0 C6.6 0 13.2 0 20 0 C20 6.6 20 13.2 20 20 C13.4 20 6.8 20 0 20 C0 19.67 0 19.34 0 19 C5.80766296 17.4943096 10.9981863 16.78175223 17 17 C16.98839844 16.26394531 16.97679687 15.52789062 16.96484375 14.76953125 C16.95582031 13.79371094 16.94679687 12.81789063 16.9375 11.8125 C16.92589844 10.84957031 16.91429687 9.88664062 16.90234375 8.89453125 C17 6 17 6 18 1 C12.06 1 6.12 1 0 1 C0 0.67 0 0.34 0 0 Z " fill="#10252C" transform="translate(130,85)"/>
<path d="M0 0 C13.53 0 27.06 0 41 0 C41 0.33 41 0.66 41 1 C40.07888428 1.04487549 39.15776855 1.08975098 38.20874023 1.13598633 C34.71354406 1.311676 31.21916696 1.49750441 27.72485352 1.68969727 C26.22701186 1.77011293 24.72896172 1.84675503 23.23071289 1.91918945 C9.35187143 2.5947289 -3.59041752 4.44258466 -16.70703125 9.328125 C-19 10 -19 10 -21 9 C-19.5459375 8.319375 -19.5459375 8.319375 -18.0625 7.625 C-14.92920418 6.34213779 -14.92920418 6.34213779 -14 4 C-11.05859375 3.5859375 -11.05859375 3.5859375 -7.4375 3.375 C-6.23996094 3.30023438 -5.04242188 3.22546875 -3.80859375 3.1484375 C-2.88175781 3.09945312 -1.95492187 3.05046875 -1 3 C-0.67 2.01 -0.34 1.02 0 0 Z " fill="#87959B" transform="translate(175,183)"/>
<path d="M0 0 C0.33 0 0.66 0 1 0 C1 1.98 1 3.96 1 6 C25.75 6 50.5 6 76 6 C73.13279762 8.86720238 71.10491629 8.28380729 67.08764648 8.3347168 C66.02160187 8.35219467 66.02160187 8.35219467 64.934021 8.37002563 C62.5797361 8.40607655 60.22555458 8.42789378 57.87109375 8.44921875 C56.23966034 8.47046142 54.6082362 8.49242808 52.9768219 8.51509094 C49.55628535 8.56052737 46.13575939 8.59931213 42.71508789 8.63305664 C38.32074265 8.67663558 33.926692 8.73335471 29.5325613 8.7946043 C26.16384804 8.84068843 22.79508825 8.88152357 19.4262867 8.92057228 C17.80547644 8.93967796 16.18468055 8.96004316 14.5639019 8.98166466 C12.30360664 9.01069721 10.04334653 9.0330772 7.78295898 9.0534668 C6.49437485 9.06741989 5.20579071 9.08137299 3.87815857 9.0957489 C1 9 1 9 0 8 C-0.14115161 5.32941149 -0.04247107 2.67567762 0 0 Z " fill="#010E14" transform="translate(7,137)"/>
<path d="M0 0 C1.34595497 0.00424484 1.34595497 0.00424484 2.71910095 0.00857544 C5.55115789 0.01966271 8.38288436 0.04474503 11.21484375 0.0703125 C13.14908394 0.08035713 15.08332914 0.08948037 17.01757812 0.09765625 C21.72929165 0.11956436 26.44076191 0.15401349 31.15234375 0.1953125 C30.82234375 1.1853125 30.49234375 2.1753125 30.15234375 3.1953125 C29.65734375 2.2053125 29.65734375 2.2053125 29.15234375 1.1953125 C20.57234375 1.1953125 11.99234375 1.1953125 3.15234375 1.1953125 C3.15234375 1.8553125 3.15234375 2.5153125 3.15234375 3.1953125 C-7.73765625 3.6903125 -7.73765625 3.6903125 -18.84765625 4.1953125 C-18.84765625 3.5353125 -18.84765625 2.8753125 -18.84765625 2.1953125 C-12.4734505 0.50355687 -6.58012149 -0.07987523 0 0 Z " fill="#12262E" transform="translate(190.84765625,169.8046875)"/>
<path d="M0 0 C1 2 1 2 1 4 C1.33 4.66 1.66 5.32 2 6 C1.67 6.66 1.34 7.32 1 8 C0.34 8 -0.32 8 -1 8 C-1 8.66 -1 9.32 -1 10 C-0.34 10 0.32 10 1 10 C-0.26213042 13.78639125 -1.65345351 14.04104596 -5 16 C-5.66 16.99 -6.32 17.98 -7 19 C-7.99 19 -8.98 19 -10 19 C-8.62394084 14.23448987 -6.53221934 10.2751447 -3.875 6.125 C-3.50246094 5.53203125 -3.12992188 4.9390625 -2.74609375 4.328125 C-1.83635 2.8818657 -0.91896202 1.44041954 0 0 Z " fill="#46575D" transform="translate(24,52)"/>
<path d="M0 0 C4.95 0 9.9 0 15 0 C15 10.56 15 21.12 15 32 C14.34 32 13.68 32 13 32 C10.39898314 21.92105968 12.69644886 11.13743792 14 1 C9.38 1 4.76 1 0 1 C0 0.67 0 0.34 0 0 Z " fill="#12272D" transform="translate(210,250)"/>
<path d="M0 0 C3.93673644 1.31224548 6.22719294 2.91910327 9 6 C7.7351082 9.79467541 6.48340608 10.14345512 3.0625 12.0625 C-0.72081765 14.19623733 -0.72081765 14.19623733 -4 17 C-7.84177074 16.69670231 -10.09427672 15.47524576 -13 13 C-12.01 12.67 -11.02 12.34 -10 12 C-10 11.34 -10 10.68 -10 10 C-9.34 10 -8.68 10 -8 10 C-6.9375 11.875 -6.9375 11.875 -6 14 C-6.33 14.66 -6.66 15.32 -7 16 C-6.34 15.67 -5.68 15.34 -5 15 C-4.34786708 12.97536745 -4.34786708 12.97536745 -4 11 C-3.01 11 -2.02 11 -1 11 C-1 10.01 -1 9.02 -1 8 C-0.4225 8.185625 0.155 8.37125 0.75 8.5625 C3.20692525 9.04023546 4.64397534 8.75729364 7 8 C6.21625 7.236875 5.4325 6.47375 4.625 5.6875 C2 3 2 3 0 0 Z " fill="#899498" transform="translate(58,252)"/>
<path d="M0 0 C0.84755859 0.00966797 1.69511719 0.01933594 2.56835938 0.02929688 C3.44943359 0.05443359 4.33050781 0.07957031 5.23828125 0.10546875 C6.13095703 0.11900391 7.02363281 0.13253906 7.94335938 0.14648438 C10.14644291 0.18182796 12.34830707 0.23116382 14.55078125 0.29296875 C14.55078125 0.62296875 14.55078125 0.95296875 14.55078125 1.29296875 C12.92269531 1.38771484 12.92269531 1.38771484 11.26171875 1.484375 C3.33289833 1.89191941 3.33289833 1.89191941 -3.8125 4.87890625 C-7.35054669 9.04028127 -8.59064407 12.76905039 -8.57421875 18.23046875 C-8.57679687 19.08511719 -8.579375 19.93976563 -8.58203125 20.8203125 C-8.45852129 23.11977727 -8.09342562 25.08937223 -7.44921875 27.29296875 C-8.10921875 27.29296875 -8.76921875 27.29296875 -9.44921875 27.29296875 C-11.60173758 20.83541225 -10.91237284 12.87716215 -9.44921875 6.29296875 C-8.45921875 6.29296875 -7.46921875 6.29296875 -6.44921875 6.29296875 C-6.77921875 5.30296875 -7.10921875 4.31296875 -7.44921875 3.29296875 C-5.08036651 0.42052834 -3.69085058 -0.07431243 0 0 Z " fill="#77888D" transform="translate(30.44921875,263.70703125)"/>
<path d="M0 0 C0.33 0 0.66 0 1 0 C1 7.59 1 15.18 1 23 C5.95 23 10.9 23 16 23 C16 23.66 16 24.32 16 25 C13.26922124 26.36538938 11.04439633 26.13231826 8 26.125 C6.39125 26.12886719 6.39125 26.12886719 4.75 26.1328125 C2 26 2 26 0 25 C0 16.75 0 8.5 0 0 Z " fill="#69787B" transform="translate(209,291)"/>
<path d="M0 0 C10.23 0.33 20.46 0.66 31 1 C31 1.66 31 2.32 31 3 C20.44 3 9.88 3 -1 3 C-0.67 2.01 -0.34 1.02 0 0 Z " fill="#1C333A" transform="translate(44,170)"/>
<path d="M0 0 C0.33 0.99 0.66 1.98 1 3 C1.66 3 2.32 3 3 3 C3.66 5.31 4.32 7.62 5 10 C0.05 10 -4.9 10 -10 10 C-10.33 8.35 -10.66 6.7 -11 5 C-10.34 5 -9.68 5 -9 5 C-9 5.99 -9 6.98 -9 8 C-6.69 8 -4.38 8 -2 8 C-1.855625 7.236875 -1.71125 6.47375 -1.5625 5.6875 C-1 3 -1 3 0 0 Z " fill="#11252A" transform="translate(144,305)"/>
<path d="M0 0 C8.58 0 17.16 0 26 0 C26 0.33 26 0.66 26 1 C18.80298461 3.39900513 12.47743661 2.84349132 5 2 C5.33 4.64 5.66 7.28 6 10 C5.34 10 4.68 10 4 10 C2.875 5.25 2.875 5.25 4 3 C3.01 3.33 2.02 3.66 1 4 C0.67 2.68 0.34 1.36 0 0 Z " fill="#0E1B22" transform="translate(17,170)"/>
<path d="M0 0 C0.33 0 0.66 0 1 0 C1 8.25 1 16.5 1 25 C-3.62 25 -8.24 25 -13 25 C-12.67 23.68 -12.34 22.36 -12 21 C-8.04 21.33 -4.08 21.66 0 22 C0 14.74 0 7.48 0 0 Z " fill="#11292F" transform="translate(179,290)"/>
<path d="M0 0 C2.00915474 2.00915474 2.71311047 3.28277618 3.75 5.875 C4.03359375 6.55304688 4.3171875 7.23109375 4.609375 7.9296875 C5.11111693 10.58891973 4.39572324 11.74459216 3 14 C0.37472811 14.05382106 -2.24944713 14.09358313 -4.875 14.125 C-5.62136719 14.14175781 -6.36773437 14.15851563 -7.13671875 14.17578125 C-9.09194461 14.1933959 -11.04742021 14.10320189 -13 14 C-13.66 13.34 -14.32 12.68 -15 12 C-11.43954823 10.81318274 -8.56191663 10.90310168 -4.8125 10.9375 C-3.54019531 10.94652344 -2.26789063 10.95554687 -0.95703125 10.96484375 C0.50669922 10.98224609 0.50669922 10.98224609 2 11 C1.67 9.9275 1.34 8.855 1 7.75 C0 4 0 4 0 0 Z " fill="#112C34" transform="translate(122,282)"/>
<path d="M0 0 C10.72655709 -0.10194194 21.31563078 -0.07419152 32 1 C32 1.33 32 1.66 32 2 C22.1 2 12.2 2 2 2 C1.67 2.99 1.34 3.98 1 5 C0.67 3.35 0.34 1.7 0 0 Z " fill="#9DA7AB" transform="translate(15,168)"/>
<path d="M0 0 C0 0.66 0 1.32 0 2 C2.64 2 5.28 2 8 2 C8 2.33 8 2.66 8 3 C-6.03332368 3.13698472 -19.98675352 2.75573446 -34 2 C-34 1.67 -34 1.34 -34 1 C-29.47934189 0.8571864 -24.9586712 0.71478006 -20.43798828 0.57275391 C-18.89957328 0.52436382 -17.3611618 0.47586174 -15.82275391 0.42724609 C-13.6136159 0.35745385 -11.40446562 0.28806219 -9.1953125 0.21875 C-8.50567413 0.19687622 -7.81603577 0.17500244 -7.10549927 0.15246582 C-2.22774341 0 -2.22774341 0 0 0 Z " fill="#092129" transform="translate(217,142)"/>
<path d="M0 0 C1.299375 0.2475 1.299375 0.2475 2.625 0.5 C9.88069913 1.54291363 17.89395998 1.89176457 25 0 C27.75 0.4375 27.75 0.4375 30 1 C24.17909965 4.88060023 16.80544728 4.54956506 10 4 C6.57917809 3.21653613 3.29589575 2.20110734 0 1 C0 0.67 0 0.34 0 0 Z " fill="#7A8C91" transform="translate(22,313)"/>
<path d="M0 0 C0.66 0.33 1.32 0.66 2 1 C0.68 2.65 -0.64 4.3 -2 6 C-1.34 6.33 -0.68 6.66 0 7 C-0.61875 7.185625 -1.2375 7.37125 -1.875 7.5625 C-5.03387405 9.69938538 -5.08726129 12.41424079 -6 16 C-6.66 16.33 -7.32 16.66 -8 17 C-8.66 17.99 -9.32 18.98 -10 20 C-9.66075349 12.19733016 -5.72456703 5.27894206 0 0 Z " fill="#586970" transform="translate(15,255)"/>
<path d="M0 0 C0.66 0 1.32 0 2 0 C2.58267717 9.90551181 2.58267717 9.90551181 -1 14 C-3.1875 14.8125 -3.1875 14.8125 -5 15 C-4.25 8.25 -4.25 8.25 -2 6 C-1.28591666 4.01643517 -0.61382258 2.01684563 0 0 Z " fill="#142A31" transform="translate(103,264)"/>
<path d="M0 0 C0 0.33 0 0.66 0 1 C-2.95801222 1.50196571 -5.91637705 2.00165835 -8.875 2.5 C-9.71675781 2.64308594 -10.55851562 2.78617188 -11.42578125 2.93359375 C-12.63427734 3.13662109 -12.63427734 3.13662109 -13.8671875 3.34375 C-14.98262939 3.53227539 -14.98262939 3.53227539 -16.12060547 3.72460938 C-18 4 -18 4 -20 4 C-20 4.99 -20 5.98 -20 7 C-23.3 7 -26.6 7 -30 7 C-27.32571041 4.32571041 -24.88408823 3.94569115 -21.25 2.9375 C-20.03828125 2.59589844 -18.8265625 2.25429687 -17.578125 1.90234375 C-11.56154777 0.38506281 -6.16594731 -0.10630944 0 0 Z " fill="#9CABAE" transform="translate(179,131)"/>
<path d="M0 0 C3.02736814 3.59383887 4.7652337 7.54528199 6.625 11.8125 C6.93695313 12.49892578 7.24890625 13.18535156 7.5703125 13.89257812 C9.50566255 18.30133891 10.53616429 22.20494169 11 27 C10.34 26.01 9.68 25.02 9 24 C8.34 23.34 7.68 22.68 7 22 C6.4375 20.1953125 6.4375 20.1953125 6 18.125 C5.05289279 14.05023641 3.70141544 11.05212316 1.375 7.5625 C-0.12991342 4.75788862 -0.2682825 3.12996247 0 0 Z " fill="#5C7173" transform="translate(219,60)"/>
<path d="M0 0 C8.36343904 3.822683 14.47113358 9.6920766 21 16 C18 16 18 16 16.5 14.5625 C16.005 14.046875 15.51 13.53125 15 13 C14.01 12.67 13.02 12.34 12 12 C11.67 11.34 11.34 10.68 11 10 C8.6859378 9.26924352 6.35171131 8.59861742 4 8 C4.33 7.34 4.66 6.68 5 6 C4.175 5.38125 3.35 4.7625 2.5 4.125 C1.675 3.42375 0.85 2.7225 0 2 C0 1.34 0 0.68 0 0 Z " fill="#758688" transform="translate(182,22)"/>
<path d="M0 0 C1.625 1.5625 1.625 1.5625 3 4 C2.1875 7.75 2.1875 7.75 1 11 C0.34 11 -0.32 11 -1 11 C-1.33 11.66 -1.66 12.32 -2 13 C-3.31328657 14.35308313 -4.64499081 15.68870078 -6 17 C-4.13236819 11.27789404 -2.14710968 5.62338249 0 0 Z " fill="#465559" transform="translate(95,280)"/>
<path d="M0 0 C-4.58583992 2.66161306 -7.90214308 3.38614377 -13.1875 3.3125 C-15.00314453 3.30669922 -15.00314453 3.30669922 -16.85546875 3.30078125 C-20 3 -20 3 -23 1 C-19.73025053 0.63530576 -16.45911086 0.28506661 -13.1875 -0.0625 C-11.7943457 -0.2181543 -11.7943457 -0.2181543 -10.37304688 -0.37695312 C-9.48037109 -0.47041016 -8.58769531 -0.56386719 -7.66796875 -0.66015625 C-6.84578857 -0.74918213 -6.0236084 -0.83820801 -5.17651367 -0.92993164 C-3 -1 -3 -1 0 0 Z " fill="#0F292E" transform="translate(177,218)"/>
<path d="M0 0 C0.66 0.33 1.32 0.66 2 1 C-1.96 4.96 -5.92 8.92 -10 13 C-10.66 12.67 -11.32 12.34 -12 12 C-11.67 11.67 -11.34 11.34 -11 11 C-10.63239269 8.67182036 -10.29758419 6.3381615 -10 4 C-7.03 4.495 -7.03 4.495 -4 5 C-3.67 4.01 -3.34 3.02 -3 2 C-2.01 1.34 -1.02 0.68 0 0 Z " fill="#1A3037" transform="translate(68,50)"/>
<path d="M0 0 C0.66 0.99 1.32 1.98 2 3 C1.67 3.99 1.34 4.98 1 6 C0.91856145 7.62719482 0.8924698 9.25751719 0.90234375 10.88671875 C0.90556641 11.82451172 0.90878906 12.76230469 0.91210938 13.72851562 C0.92048828 14.70498047 0.92886719 15.68144531 0.9375 16.6875 C0.94201172 17.67556641 0.94652344 18.66363281 0.95117188 19.68164062 C0.96295697 22.12115474 0.97940989 24.56054689 1 27 C-2.98404167 21.0239375 -2.45089558 12.98363847 -2 6 C-1 2.3125 -1 2.3125 0 0 Z " fill="#13232B" transform="translate(7,269)"/>
<path d="M0 0 C18.34042553 -0.76595745 18.34042553 -0.76595745 27 4 C24.40044058 5.29977971 22.86869334 4.9002386 20 4.5625 C16.50760234 4.14614978 16.50760234 4.14614978 13 4 C13 3.01 13 2.02 13 1 C8.71 1 4.42 1 0 1 C0 0.67 0 0.34 0 0 Z " fill="#8D9BA0" transform="translate(31,247)"/>
<path d="M0 0 C11.385 0.99 11.385 0.99 23 2 C22.67 2.66 22.34 3.32 22 4 C19.45767658 4.08152344 16.91800798 4.14073716 14.375 4.1875 C13.30572266 4.22520508 13.30572266 4.22520508 12.21484375 4.26367188 C7.37723584 4.33024446 4.25261662 3.55559453 0 1 C0 0.67 0 0.34 0 0 Z " fill="#1F3236" transform="translate(63,217)"/>
<path d="M0 0 C1.76923828 0.01353516 1.76923828 0.01353516 3.57421875 0.02734375 C4.47785156 0.03894531 5.38148437 0.05054688 6.3125 0.0625 C6.3125 0.7225 6.3125 1.3825 6.3125 2.0625 C5.26449219 2.15337891 5.26449219 2.15337891 4.1953125 2.24609375 C3.28523438 2.32988281 2.37515625 2.41367188 1.4375 2.5 C0.53257813 2.58121094 -0.37234375 2.66242188 -1.3046875 2.74609375 C-3.69860861 2.93239285 -3.69860861 2.93239285 -5.6875 4.0625 C-8.3598621 4.19665472 -11.01000488 4.10568541 -13.6875 4.0625 C-9.07131153 0.40138501 -5.84702603 -0.05789135 0 0 Z " fill="#1C2C33" transform="translate(37.6875,247.9375)"/>
<path d="M0 0 C5.28 0 10.56 0 16 0 C16 0.66 16 1.32 16 2 C17.98 2 19.96 2 22 2 C22 2.33 22 2.66 22 3 C19.64575325 3.02726927 17.29183038 3.04696719 14.9375 3.0625 C12.97103516 3.07990234 12.97103516 3.07990234 10.96484375 3.09765625 C7.1836481 3.00452335 3.72079293 2.61448726 0 2 C0 1.34 0 0.68 0 0 Z " fill="#12242C" transform="translate(25,180)"/>
<path d="M0 0 C0.33 0 0.66 0 1 0 C1 1.98 1 3.96 1 6 C14.365 6.495 14.365 6.495 28 7 C28 7.33 28 7.66 28 8 C23.52115561 8.19581346 19.04191574 8.3802636 14.5625 8.5625 C13.28310547 8.61857422 12.00371094 8.67464844 10.68554688 8.73242188 C8.86313477 8.80493164 8.86313477 8.80493164 7.00390625 8.87890625 C5.87799072 8.9260376 4.7520752 8.97316895 3.59204102 9.02172852 C1 9 1 9 0 8 C-0.14115161 5.32941149 -0.04247107 2.67567762 0 0 Z " fill="#001217" transform="translate(7,137)"/>
<path d="M0 0 C6.6 0 13.2 0 20 0 C20 0.33 20 0.66 20 1 C14.06 1.495 14.06 1.495 8 2 C7.67 3.32 7.34 4.64 7 6 C4.0625 5.25 4.0625 5.25 1 4 C0.67 2.68 0.34 1.36 0 0 Z " fill="#445458" transform="translate(49,209)"/>
<path d="M0 0 C0 0.66 0 1.32 0 2 C-1.98 2.99 -1.98 2.99 -4 4 C-3.34 4.66 -2.68 5.32 -2 6 C-3.01320312 6.09087891 -3.01320312 6.09087891 -4.046875 6.18359375 C-4.93890625 6.26738281 -5.8309375 6.35117188 -6.75 6.4375 C-7.63171875 6.51871094 -8.5134375 6.59992188 -9.421875 6.68359375 C-11.69350452 6.96238465 -13.79851823 7.38790577 -16 8 C-13.52093943 5.13437405 -10.87838941 3.8382206 -7.4375 2.3125 C-5.98150391 1.65701172 -5.98150391 1.65701172 -4.49609375 0.98828125 C-2 0 -2 0 0 0 Z " fill="#708287" transform="translate(149,138)"/>
<path d="M0 0 C1.32 0 2.64 0 4 0 C4 2.31 4 4.62 4 7 C5.32 7 6.64 7 8 7 C8 7.66 8 8.32 8 9 C10.31 9 12.62 9 15 9 C15 9.33 15 9.66 15 10 C11.37 10 7.74 10 4 10 C0 2.25 0 2.25 0 0 Z " fill="#4F5F63" transform="translate(17,173)"/>
<path d="M0 0 C2.475 0.99 2.475 0.99 5 2 C5 3.65 5 5.3 5 7 C5.66 7 6.32 7 7 7 C7.66 9.97 8.32 12.94 9 16 C6.72861652 13.06698229 4.73130058 10.04931207 2.8125 6.875 C2.28269531 6.00617188 1.75289062 5.13734375 1.20703125 4.2421875 C0 2 0 2 0 0 Z " fill="#7C8A8A" transform="translate(182,66)"/>
<path d="M0 0 C0.33 0 0.66 0 1 0 C1.06058594 0.99902344 1.12117188 1.99804688 1.18359375 3.02734375 C1.26738281 4.31769531 1.35117187 5.60804687 1.4375 6.9375 C1.51871094 8.22527344 1.59992187 9.51304688 1.68359375 10.83984375 C1.64919188 13.86023957 1.64919188 13.86023957 3 15 C3.04080783 16.99958364 3.04254356 19.00045254 3 21 C2.01 20.34 1.02 19.68 0 19 C-0.34057617 17.02880859 -0.34057617 17.02880859 -0.29296875 14.6484375 C-0.28330078 13.79765625 -0.27363281 12.946875 -0.26367188 12.0703125 C-0.23853516 11.18085937 -0.21339844 10.29140625 -0.1875 9.375 C-0.17396484 8.4778125 -0.16042969 7.580625 -0.14648438 6.65625 C-0.11106925 4.43690211 -0.06168461 2.21874812 0 0 Z " fill="#102B2E" transform="translate(38,105)"/>
<path d="M0 0 C-0.33 0.66 -0.66 1.32 -1 2 C-1.99 1.67 -2.98 1.34 -4 1 C-4 1.66 -4 2.32 -4 3 C-7.63 3 -11.26 3 -15 3 C-15 2.34 -15 1.68 -15 1 C-9.94997778 -0.03590199 -5.12583611 -0.10251672 0 0 Z " fill="#13252C" transform="translate(92,169)"/>
<path d="M0 0 C0 0.66 0 1.32 0 2 C-2 4 -2 4 -4 5 C-4.33 5.66 -4.66 6.32 -5 7 C-6.32 7 -7.64 7 -9 7 C-7.16766277 2.5718517 -4.96404317 0 0 0 Z " fill="#193136" transform="translate(53,27)"/>
<path d="M0 0 C0.33 0.99 0.66 1.98 1 3 C1.66 3 2.32 3 3 3 C3 4.65 3 6.3 3 8 C1.35 8 -0.3 8 -2 8 C-1.47731534 5.23723823 -0.89130413 2.6739124 0 0 Z " fill="#15323B" transform="translate(144,305)"/>
<path d="M0 0 C-4.34242429 4.34242429 -8.13551546 4.7444669 -14 5 C-9.50251396 0.38881347 -6.53260562 -0.25125406 0 0 Z " fill="#0C1F26" transform="translate(168,212)"/>
<path d="M0 0 C-1.23944276 0.86941494 -2.49207059 1.72005457 -3.75 2.5625 C-4.44609375 3.03816406 -5.1421875 3.51382813 -5.859375 4.00390625 C-8 5 -8 5 -10.265625 4.65234375 C-10.83796875 4.43707031 -11.4103125 4.22179687 -12 4 C-11.34 4 -10.68 4 -10 4 C-10 3.34 -10 2.68 -10 2 C-3.375 -1.125 -3.375 -1.125 0 0 Z " fill="#12292F" transform="translate(138,200)"/>
<path d="M0 0 C0 0.66 0 1.32 0 2 C-0.66 2.66 -1.32 3.32 -2 4 C-2 4.66 -2 5.32 -2 6 C-4.97 6 -7.94 6 -11 6 C-7.92832129 2.92832129 -4.55956968 0 0 0 Z " fill="#79868A" transform="translate(133,146)"/>
<path d="M0 0 C6.02536998 -0.602537 6.02536998 -0.602537 8.80078125 1.11328125 C10.25599455 2.34621853 11.63479157 3.66808933 13 5 C12.01 5.495 12.01 5.495 11 6 C8.3984375 5.00390625 8.3984375 5.00390625 5.375 3.5625 C3.87066406 2.85287109 3.87066406 2.85287109 2.3359375 2.12890625 C1.56507812 1.75636719 0.79421875 1.38382813 0 1 C0 0.67 0 0.34 0 0 Z " fill="#727F87" transform="translate(56,215)"/>
<path d="M0 0 C1.77503906 0.03480469 1.77503906 0.03480469 3.5859375 0.0703125 C5.36871094 0.09738281 5.36871094 0.09738281 7.1875 0.125 C8.10273437 0.14820313 9.01796875 0.17140625 9.9609375 0.1953125 C9.9609375 0.5253125 9.9609375 0.8553125 9.9609375 1.1953125 C8.40127158 1.56175828 6.83801099 1.91292112 5.2734375 2.2578125 C4.40332031 2.45503906 3.53320312 2.65226563 2.63671875 2.85546875 C-0.19907526 3.21563529 -2.28696232 2.90441219 -5.0390625 2.1953125 C-3.0390625 0.1953125 -3.0390625 0.1953125 0 0 Z " fill="#162B32" transform="translate(72.0390625,208.8046875)"/>
<path d="M0 0 C0.66 0.66 1.32 1.32 2 2 C1.67 2.66 1.34 3.32 1 4 C2.32 4.33 3.64 4.66 5 5 C5 5.66 5 6.32 5 7 C1.2089881 5.55049545 -2.3874638 3.84827434 -6 2 C-2.25 0.875 -2.25 0.875 0 2 C0 1.34 0 0.68 0 0 Z " fill="#6D7D81" transform="translate(157,41)"/>
<path d="M0 0 C-2.68092691 2.68092691 -4.39167363 2.38670257 -8.125 2.625 C-9.22070312 2.69976562 -10.31640625 2.77453125 -11.4453125 2.8515625 C-12.28835937 2.90054688 -13.13140625 2.94953125 -14 3 C-13.01 2.67 -12.02 2.34 -11 2 C-10.67 1.34 -10.34 0.68 -10 0 C-6.35346727 -1.11421833 -3.66708957 -0.94296589 0 0 Z " fill="#2E4246" transform="translate(105,35)"/>
<path d="M0 0 C1.31223496 3.93670488 0.24296256 6.12488144 -1 10 C-1.66 10 -2.32 10 -3 10 C-3.33 11.65 -3.66 13.3 -4 15 C-5.32830615 11.01508155 -4.23204404 9.59951452 -2.5625 5.8125 C-2.08941406 4.72582031 -1.61632812 3.63914062 -1.12890625 2.51953125 C-0.75636719 1.68808594 -0.38382812 0.85664063 0 0 Z " fill="#0A1D21" transform="translate(92,291)"/>
<path d="M0 0 C-2.64 1.65 -5.28 3.3 -8 5 C-8.33 3.68 -8.66 2.36 -9 1 C-3.375 -1.125 -3.375 -1.125 0 0 Z " fill="#162E36" transform="translate(163,176)"/>
<path d="M0 0 C-1.45264038 0.8638129 -2.9123163 1.71580454 -4.375 2.5625 C-5.59316406 3.27599609 -5.59316406 3.27599609 -6.8359375 4.00390625 C-7.55007812 4.33261719 -8.26421875 4.66132813 -9 5 C-9.66 4.67 -10.32 4.34 -11 4 C-10.375 2.0625 -10.375 2.0625 -9 0 C-5.41410857 -0.99184231 -3.55287397 -1.18429132 0 0 Z " fill="#7F909A" transform="translate(138,162)"/>
<path d="M0 0 C1.62463842 -0.05395478 3.24978541 -0.09277195 4.875 -0.125 C5.77992188 -0.14820313 6.68484375 -0.17140625 7.6171875 -0.1953125 C10 0 10 0 12 2 C11.67 2.66 11.34 3.32 11 4 C7.1936543 3.32829194 3.64793184 2.27253436 0 1 C0 0.67 0 0.34 0 0 Z " fill="#6B7C7E" transform="translate(140,38)"/>
<path d="M0 0 C2.96 4.44 2.96 4.44 4 7 C3.67 7.99 3.34 8.98 3 10 C2.34 9.67 1.68 9.34 1 9 C1 9.66 1 10.32 1 11 C0.34 11 -0.32 11 -1 11 C-0.835 9.9275 -0.67 8.855 -0.5 7.75 C0.08810915 3.96971248 0.08810915 3.96971248 0 0 Z " fill="#6E8388" transform="translate(140,290)"/>
<path d="M0 0 C0.66 0.33 1.32 0.66 2 1 C0.1875 4 0.1875 4 -2 7 C-2.99 7 -3.98 7 -5 7 C-5 6.01 -5 5.02 -5 4 C-2.5 1.8125 -2.5 1.8125 0 0 Z " fill="#152E34" transform="translate(19,254)"/>
<path d="M0 0 C-4.27320453 2.84880302 -6.78168857 4.28990619 -12 4 C-10 1 -10 1 -7.6875 0.3125 C-5.09355691 0.01087871 -2.60858859 -0.0745311 0 0 Z " fill="#162A2C" transform="translate(88,10)"/>
<path d="M0 0 C3.3 0.33 6.6 0.66 10 1 C8 3 8 3 5.8359375 3.1953125 C4.61777344 3.16050781 4.61777344 3.16050781 3.375 3.125 C2.55773437 3.10695312 1.74046875 3.08890625 0.8984375 3.0703125 C0.27195313 3.04710937 -0.35453125 3.02390625 -1 3 C-0.67 2.01 -0.34 1.02 0 0 Z " fill="#5D6E73" transform="translate(175,183)"/>
<path d="M0 0 C-3.85756507 2.15305957 -6.55129785 3.39253254 -11 3 C-11 2.01 -11 1.02 -11 0 C-9.54263913 -0.19491452 -8.08405407 -0.38069358 -6.625 -0.5625 C-5.81289062 -0.66691406 -5.00078125 -0.77132812 -4.1640625 -0.87890625 C-2 -1 -2 -1 0 0 Z " fill="#77878E" transform="translate(111,176)"/>
<path d="M0 0 C0.33 0 0.66 0 1 0 C1.1799928 5.21979128 0.97094808 9.07262981 -1 14 C-1.66 14 -2.32 14 -3 14 C-2.01 9.38 -1.02 4.76 0 0 Z " fill="#11272E" transform="translate(231,132)"/>
<path d="M0 0 C0 0.99 0 1.98 0 3 C-3.3 3 -6.6 3 -10 3 C-6.88378718 -0.11621282 -4.21175599 -0.11383124 0 0 Z " fill="#647478" transform="translate(159,135)"/>
<path d="M0 0 C1.46313772 0.76167457 2.92036661 1.53470707 4.375 2.3125 C5.18710938 2.74175781 5.99921875 3.17101562 6.8359375 3.61328125 C9 5 9 5 11 8 C6.51400257 6.74809374 3.40652872 5.20614467 0 2 C0 1.34 0 0.68 0 0 Z " fill="#8D9B9C" transform="translate(182,22)"/>
<path d="M0 0 C0.33 0 0.66 0 1 0 C1 1.98 1 3.96 1 6 C3.31 6.33 5.62 6.66 8 7 C5.64561267 8.42944945 4.51967567 9.08661261 1.75 8.625 C1.1725 8.41875 0.595 8.2125 0 8 C0 5.36 0 2.72 0 0 Z " fill="#112328" transform="translate(7,137)"/>
<path d="M0 0 C3.3 0.33 6.6 0.66 10 1 C10 1.66 10 2.32 10 3 C9.01 3 8.02 3 7 3 C7 3.66 7 4.32 7 5 C3.90837736 3.61410019 2.50816459 2.50816459 0 0 Z " fill="#6C7A7E" transform="translate(162,48)"/>
<path d="M0 0 C2.97 0.33 5.94 0.66 9 1 C5.91111478 3.05925681 5.29064073 3.2390374 1.8125 3.125 C-0.0746875 3.063125 -0.0746875 3.063125 -2 3 C-1.34 2.01 -0.68 1.02 0 0 Z " fill="#576A6F" transform="translate(43,313)"/>
<path d="M0 0 C0.88672454 2.4828287 1.14518218 3.62029277 0.1875 6.125 C-1 8 -1 8 -3 10 C-2.67 7.69 -2.34 5.38 -2 3 C-1.34 3 -0.68 3 0 3 C0 2.01 0 1.02 0 0 Z " fill="#14242A" transform="translate(108,253)"/>
<path d="M0 0 C0.99 0.33 1.98 0.66 3 1 C3 1.66 3 2.32 3 3 C3.66 3.66 4.32 4.32 5 5 C2.69 4.67 0.38 4.34 -2 4 C-1.34 2.68 -0.68 1.36 0 0 Z " fill="#26373A" transform="translate(152,216)"/>
<path d="M0 0 C4.12989477 4.26311718 4.61271765 7.28758534 5 13 C2.2946129 8.94191935 0 4.95110601 0 0 Z " fill="#132329" transform="translate(190,76)"/>
<path d="M0 0 C0.66 0 1.32 0 2 0 C2.66 1.32 3.32 2.64 4 4 C3.34 4.66 2.68 5.32 2 6 C1.01 6 0.02 6 -1 6 C-0.67 4.02 -0.34 2.04 0 0 Z " fill="#152B33" transform="translate(14,72)"/>
<path d="M0 0 C0.33 1.32 0.66 2.64 1 4 C0.34 4 -0.32 4 -1 4 C-1.33 4.99 -1.66 5.98 -2 7 C-2.99 6.34 -3.98 5.68 -5 5 C-3.35 3.35 -1.7 1.7 0 0 Z " fill="#172B32" transform="translate(42,34)"/>
<path d="M0 0 C2.475 0.99 2.475 0.99 5 2 C5 2.66 5 3.32 5 4 C6.32 4.66 7.64 5.32 9 6 C7.35 6.33 5.7 6.66 4 7 C3.67 5.35 3.34 3.7 3 2 C2.01 1.67 1.02 1.34 0 1 C0 0.67 0 0.34 0 0 Z " fill="#193133" transform="translate(180,23)"/>
<path d="M0 0 C-1.32 0.33 -2.64 0.66 -4 1 C-4 1.66 -4 2.32 -4 3 C-6.64 3 -9.28 3 -12 3 C-7.59360646 0.79680323 -5.02549129 -0.10924981 0 0 Z " fill="#0E212A" transform="translate(92,180)"/>
<path d="M0 0 C2.475 0.99 2.475 0.99 5 2 C5 2.66 5 3.32 5 4 C5.99 4.33 6.98 4.66 8 5 C7.67 5.99 7.34 6.98 7 8 C5.83035398 6.8572081 4.66435444 5.71068285 3.5 4.5625 C2.8503125 3.92441406 2.200625 3.28632812 1.53125 2.62890625 C0 1 0 1 0 0 Z " fill="#172A2F" transform="translate(173,55)"/>
<path d="M0 0 C0.928125 0.5259375 0.928125 0.5259375 1.875 1.0625 C2.57625 1.371875 3.2775 1.68125 4 2 C4.66 1.67 5.32 1.34 6 1 C5.67 1.99 5.34 2.98 5 4 C2.36 3.67 -0.28 3.34 -3 3 C-2.01 2.01 -1.02 1.02 0 0 Z " fill="#173338" transform="translate(68,45)"/>
<path d="M0 0 C0.66 0 1.32 0 2 0 C2.66 1.32 3.32 2.64 4 4 C1.625 4.625 1.625 4.625 -1 5 C-1.66 4.34 -2.32 3.68 -3 3 C-2.01 2.67 -1.02 2.34 0 2 C0 1.34 0 0.68 0 0 Z " fill="#4D5860" transform="translate(48,262)"/>
<path d="M0 0 C0.99 0.66 1.98 1.32 3 2 C-3.28571429 4.42857143 -3.28571429 4.42857143 -7 3 C-3.6875 1.375 -3.6875 1.375 0 0 Z " fill="#142C34" transform="translate(158,148)"/>
</svg>
